<svg width="128" height="128" viewBox="0 0 128 128" fill="none" xmlns="http://www.w3.org/2000/svg">
<path d="M0 48.5898V71.1782C0 71.1782 8.71934e-07 78.7113 7.52871 78.7113V56.121C7.52871 56.121 7.52871 48.5898 0 48.5898Z" fill="#DA1E28"/>
<path d="M11.2915 26V86.2425C11.2915 86.2425 11.2915 101.303 26.3523 101.303V41.0609C26.3523 41.0609 26.3523 26.0009 11.2915 26.0009V26Z" fill="#DA1E28"/>
<path d="M120.471 48.5898V71.1782C120.471 71.1782 120.471 78.7113 128 78.7113V56.121C128 56.121 128.001 48.5898 120.471 48.5898Z" fill="#DA1E28"/>
<path d="M101.262 26V86.2425C101.262 86.2425 101.262 101.303 116.321 101.303V41.0609C116.321 41.0609 116.321 26.0009 101.262 26.0009V26Z" fill="#DA1E28"/>
<path d="M33.8835 56.1213H94.1192V71.1794H33.8835V56.1213Z" fill="#DA1E28"/>
</svg>
